<svg width="2000" height="2000" viewBox="0 0 2000 2000" fill="none" xmlns="http://www.w3.org/2000/svg">
<g clip-path="url(#clip0_102_2)">
<path d="M1000 2000C1554.17 2000 2000 1554.17 2000 1000C2000 445.83 1554.17 0 1000 0C445.83 0 0 445.83 0 1000C0 1554.17 445.83 2000 1000 2000Z" fill="#2775CA"/>
<path d="M1275 1158.33C1275 1012.5 1187.5 962.5 1012.5 941.67C887.5 925 862.5 891.67 862.5 833.33C862.5 774.99 904.17 737.5 987.5 737.5C1062.5 737.5 1104.17 762.5 1125 825C1129.17 837.5 1141.67 845.83 1154.17 845.83H1220.83C1237.5 845.83 1250 833.33 1250 816.67V812.5C1233.33 720.83 1158.33 650 1062.5 641.67V541.67C1062.5 525 1050 512.5 1029.17 508.33H966.67C950 508.33 937.5 520.83 933.33 541.67V637.5C808.33 654.17 729.17 737.5 729.17 841.67C729.17 979.17 812.5 1033.33 987.5 1054.17C1104.17 1075 1141.67 1100 1141.67 1166.67C1141.67 1233.34 1083.33 1279.17 1004.17 1279.17C895.83 1279.17 858.33 1233.33 845.83 1170.83C841.67 1154.17 829.17 1145.83 816.67 1145.83H745.83C729.17 1145.83 716.67 1158.33 716.67 1175V1179.17C733.33 1283.33 800 1358.33 937.5 1379.17V1479.17C937.5 1495.83 950 1508.33 970.83 1512.5H1033.33C1050 1512.5 1062.5 1500 1066.67 1479.17V1379.17C1191.67 1358.33 1275 1270.83 1275 1158.33Z" fill="white"/>
<path d="M787.5 1595.83C462.5 1479.17 295.83 1116.67 416.67 795.83C479.17 620.83 616.67 487.5 787.5 425C804.17 416.67 812.5 404.17 812.5 383.33V325C812.5 308.33 804.17 295.83 787.5 291.67C783.33 291.67 775 291.67 770.83 295.83C375 420.83 158.33 841.67 283.33 1237.5C358.33 1470.83 537.5 1650 770.83 1725C787.5 1733.33 804.17 1725 808.33 1708.33C812.5 1704.17 812.5 1700 812.5 1691.67V1633.33C812.5 1620.83 800 1604.17 787.5 1595.83ZM1229.17 295.83C1212.5 287.5 1195.83 295.83 1191.67 312.5C1187.5 316.67 1187.5 320.83 1187.5 329.17V387.5C1187.5 404.17 1200 420.83 1212.5 429.17C1537.5 545.83 1704.17 908.33 1583.33 1229.17C1520.83 1404.17 1383.33 1537.5 1212.5 1600C1195.83 1608.33 1187.5 1620.83 1187.5 1641.67V1700C1187.5 1716.67 1195.83 1729.17 1212.5 1733.33C1216.67 1733.33 1225 1733.33 1229.17 1729.17C1625 1604.17 1841.67 1183.33 1716.67 787.5C1641.67 550 1458.33 370.83 1229.17 295.83Z" fill="white"/>
<path d="M862.273 1733V1639.91H918.091V1649.91H873.545V1681.36H913.909V1691.36H873.545V1733H862.273ZM956.489 1734.64C952.064 1734.64 948.049 1733.8 944.443 1732.14C940.837 1730.44 937.973 1728 935.852 1724.82C933.731 1721.61 932.67 1717.73 932.67 1713.18C932.67 1709.18 933.458 1705.94 935.034 1703.45C936.61 1700.94 938.716 1698.97 941.352 1697.55C943.989 1696.12 946.898 1695.06 950.08 1694.36C953.292 1693.64 956.519 1693.06 959.761 1692.64C964.004 1692.09 967.443 1691.68 970.08 1691.41C972.746 1691.11 974.686 1690.61 975.898 1689.91C977.14 1689.21 977.761 1688 977.761 1686.27V1685.91C977.761 1681.42 976.534 1677.94 974.08 1675.45C971.655 1672.97 967.973 1671.73 963.034 1671.73C957.913 1671.73 953.898 1672.85 950.989 1675.09C948.08 1677.33 946.034 1679.73 944.852 1682.27L934.67 1678.64C936.489 1674.39 938.913 1671.09 941.943 1668.73C945.004 1666.33 948.337 1664.67 951.943 1663.73C955.58 1662.76 959.155 1662.27 962.67 1662.27C964.913 1662.27 967.489 1662.55 970.398 1663.09C973.337 1663.61 976.17 1664.68 978.898 1666.32C981.655 1667.95 983.943 1670.42 985.761 1673.73C987.58 1677.03 988.489 1681.45 988.489 1687V1733H977.761V1723.55H977.216C976.489 1725.06 975.277 1726.68 973.58 1728.41C971.883 1730.14 969.625 1731.61 966.807 1732.82C963.989 1734.03 960.549 1734.64 956.489 1734.64ZM958.125 1725C962.367 1725 965.943 1724.17 968.852 1722.5C971.792 1720.83 974.004 1718.68 975.489 1716.05C977.004 1713.41 977.761 1710.64 977.761 1707.73V1697.91C977.307 1698.45 976.307 1698.95 974.761 1699.41C973.246 1699.83 971.489 1700.21 969.489 1700.55C967.519 1700.85 965.595 1701.12 963.716 1701.36C961.867 1701.58 960.367 1701.76 959.216 1701.91C956.428 1702.27 953.822 1702.86 951.398 1703.68C949.004 1704.47 947.064 1705.67 945.58 1707.27C944.125 1708.85 943.398 1711 943.398 1713.73C943.398 1717.45 944.777 1720.27 947.534 1722.18C950.322 1724.06 953.852 1725 958.125 1725ZM1018.07 1707.55L1017.89 1694.27H1020.07L1050.61 1663.18H1063.89L1031.34 1696.09H1030.43L1018.07 1707.55ZM1008.07 1733V1639.91H1018.8V1733H1008.07ZM1052.43 1733L1025.16 1698.45L1032.8 1691L1066.07 1733H1052.43ZM1104.09 1734.45C1097.36 1734.45 1091.56 1732.97 1086.68 1730C1081.83 1727 1078.09 1722.82 1075.45 1717.45C1072.85 1712.06 1071.55 1705.79 1071.55 1698.64C1071.55 1691.48 1072.85 1685.18 1075.45 1679.73C1078.09 1674.24 1081.76 1669.97 1086.45 1666.91C1091.18 1663.82 1096.7 1662.27 1103 1662.27C1106.64 1662.27 1110.23 1662.88 1113.77 1664.09C1117.32 1665.3 1120.55 1667.27 1123.45 1670C1126.36 1672.7 1128.68 1676.27 1130.41 1680.73C1132.14 1685.18 1133 1690.67 1133 1697.18V1701.73H1079.18V1692.45H1122.09C1122.09 1688.52 1121.3 1685 1119.73 1681.91C1118.18 1678.82 1115.97 1676.38 1113.09 1674.59C1110.24 1672.8 1106.88 1671.91 1103 1671.91C1098.73 1671.91 1095.03 1672.97 1091.91 1675.09C1088.82 1677.18 1086.44 1679.91 1084.77 1683.27C1083.11 1686.64 1082.27 1690.24 1082.27 1694.09V1700.27C1082.27 1705.55 1083.18 1710.02 1085 1713.68C1086.85 1717.32 1089.41 1720.09 1092.68 1722C1095.95 1723.88 1099.76 1724.82 1104.09 1724.82C1106.91 1724.82 1109.45 1724.42 1111.73 1723.64C1114.03 1722.82 1116.02 1721.61 1117.68 1720C1119.35 1718.36 1120.64 1716.33 1121.55 1713.91L1131.91 1716.82C1130.82 1720.33 1128.98 1723.42 1126.41 1726.09C1123.83 1728.73 1120.65 1730.79 1116.86 1732.27C1113.08 1733.73 1108.82 1734.45 1104.09 1734.45Z" fill="white"/>
<path d="M862.273 381V287.909H918.091V297.909H873.545V329.364H913.909V339.364H873.545V381H862.273ZM956.489 382.636C952.064 382.636 948.049 381.803 944.443 380.136C940.837 378.439 937.973 376 935.852 372.818C933.731 369.606 932.67 365.727 932.67 361.182C932.67 357.182 933.458 353.939 935.034 351.455C936.61 348.939 938.716 346.97 941.352 345.545C943.989 344.121 946.898 343.061 950.08 342.364C953.292 341.636 956.519 341.061 959.761 340.636C964.004 340.091 967.443 339.682 970.08 339.409C972.746 339.106 974.686 338.606 975.898 337.909C977.14 337.212 977.761 336 977.761 334.273V333.909C977.761 329.424 976.534 325.939 974.08 323.455C971.655 320.97 967.973 319.727 963.034 319.727C957.913 319.727 953.898 320.848 950.989 323.091C948.08 325.333 946.034 327.727 944.852 330.273L934.67 326.636C936.489 322.394 938.913 319.091 941.943 316.727C945.004 314.333 948.337 312.667 951.943 311.727C955.58 310.758 959.155 310.273 962.67 310.273C964.913 310.273 967.489 310.545 970.398 311.091C973.337 311.606 976.17 312.682 978.898 314.318C981.655 315.955 983.943 318.424 985.761 321.727C987.58 325.03 988.489 329.455 988.489 335V381H977.761V371.545H977.216C976.489 373.061 975.277 374.682 973.58 376.409C971.883 378.136 969.625 379.606 966.807 380.818C963.989 382.03 960.549 382.636 956.489 382.636ZM958.125 373C962.367 373 965.943 372.167 968.852 370.5C971.792 368.833 974.004 366.682 975.489 364.045C977.004 361.409 977.761 358.636 977.761 355.727V345.909C977.307 346.455 976.307 346.955 974.761 347.409C973.246 347.833 971.489 348.212 969.489 348.545C967.519 348.848 965.595 349.121 963.716 349.364C961.867 349.576 960.367 349.758 959.216 349.909C956.428 350.273 953.822 350.864 951.398 351.682C949.004 352.47 947.064 353.667 945.58 355.273C944.125 356.848 943.398 359 943.398 361.727C943.398 365.455 944.777 368.273 947.534 370.182C950.322 372.061 953.852 373 958.125 373ZM1018.07 355.545L1017.89 342.273H1020.07L1050.61 311.182H1063.89L1031.34 344.091H1030.43L1018.07 355.545ZM1008.07 381V287.909H1018.8V381H1008.07ZM1052.43 381L1025.16 346.455L1032.8 339L1066.07 381H1052.43ZM1104.09 382.455C1097.36 382.455 1091.56 380.97 1086.68 378C1081.83 375 1078.09 370.818 1075.45 365.455C1072.85 360.061 1071.55 353.788 1071.55 346.636C1071.55 339.485 1072.85 333.182 1075.45 327.727C1078.09 322.242 1081.76 317.97 1086.45 314.909C1091.18 311.818 1096.7 310.273 1103 310.273C1106.64 310.273 1110.23 310.879 1113.77 312.091C1117.32 313.303 1120.55 315.273 1123.45 318C1126.36 320.697 1128.68 324.273 1130.41 328.727C1132.14 333.182 1133 338.667 1133 345.182V349.727H1079.18V340.455H1122.09C1122.09 336.515 1121.3 333 1119.73 329.909C1118.18 326.818 1115.97 324.379 1113.09 322.591C1110.24 320.803 1106.88 319.909 1103 319.909C1098.73 319.909 1095.03 320.97 1091.91 323.091C1088.82 325.182 1086.44 327.909 1084.77 331.273C1083.11 334.636 1082.27 338.242 1082.27 342.091V348.273C1082.27 353.545 1083.18 358.015 1085 361.682C1086.85 365.318 1089.41 368.091 1092.68 370C1095.95 371.879 1099.76 372.818 1104.09 372.818C1106.91 372.818 1109.45 372.424 1111.73 371.636C1114.03 370.818 1116.02 369.606 1117.68 368C1119.35 366.364 1120.64 364.333 1121.55 361.909L1131.91 364.818C1130.82 368.333 1128.98 371.424 1126.41 374.091C1123.83 376.727 1120.65 378.788 1116.86 380.273C1113.08 381.727 1108.82 382.455 1104.09 382.455Z" fill="white"/>
</g>
<defs>
<clipPath id="clip0_102_2">
<rect width="2000" height="2000" fill="white"/>
</clipPath>
</defs>
</svg>
